# xmcd CD database file
#
# Track frame offsets:
#	150
#	39219
#	66215
#	107088
#	133444
#	173016
#	191982
#	229174
#	253869
#
# Disc length: 3914 seconds
#
# Revision: 1
# Processed by: cddbd v1.5.2PL0 Copyright (c) Steve Scherf et al.
# Submitted via: CDex 1.70beta2
#
DISCID=820f4809
DTITLE=Steve Turre - Rainbow People
DYEAR=2008
DGENRE=Jazz
TTITLE0=Rainbow People
TTITLE1=Forward Vision
TTITLE2=Brother Ray
TTITLE3=Groove Blues
TTITLE4=Midnight In Madrid
TTITLE5=Cleopatra's Needle
TTITLE6=Search For Peace
TTITLE7=Segment
TTITLE8=Para El Comandante
EXTD=YEAR: 2008
EXTT0=
EXTT1=
EXTT2=
EXTT3=
EXTT4=
EXTT5=
EXTT6=
EXTT7=
EXTT8=
PLAYORDER=
